{
	"asset":{
		"generator":"Khronos glTF Blender I/O v3.6.27",
		"version":"2.0"
	},
	"extensionsUsed":[
		"KHR_materials_ior"
	],
	"scene":0,
	"scenes":[
		{
			"name":"Scene",
			"nodes":[
				0,
				1
			]
		}
	],
	"nodes":[
		{
			"extras":{
				"_type":"entity",
				"_entity":"player"
			},
			"mesh":0,
			"name":"player.001",
			"translation":[
				10,
				15.5,
				51
			]
		},
		{
			"extras":{
				"_entity":"demon",
				"_type":"entity"
			},
			"mesh":1,
			"name":"demon",
			"translation":[
				-6,
				15.5,
				1
			]
		}
	],
	"materials":[
		{
			"doubleSided":true,
			"extensions":{
				"KHR_materials_specular":{
					"specularColorFactor":[
						0,
						0,
						0
					]
				},
				"KHR_materials_ior":{
					"ior":1.4500000476837158
				}
			},
			"name":"default.002",
			"pbrMetallicRoughness":{
				"baseColorTexture":{
					"index":0
				},
				"metallicFactor":0,
				"roughnessFactor":0.949999988079071
			}
		}
	],
	"meshes":[
		{
			"name":"Cylinder",
			"primitives":[
				{
					"attributes":{
						"POSITION":0,
						"NORMAL":1,
						"TEXCOORD_0":2
					},
					"indices":3
				}
			]
		},
		{
			"extras":{
				"targetNames":[
					"breathe.001",
					"breathe.002",
					"breathe.003",
					"breathe.004",
					"breathe.005"
				]
			},
			"name":"Mesh_0.003",
			"primitives":[
				{
					"attributes":{
						"POSITION":4,
						"NORMAL":5,
						"TEXCOORD_0":6
					},
					"indices":7,
					"material":0,
					"targets":[
						{
							"POSITION":8,
							"NORMAL":9
						},
						{
							"POSITION":10,
							"NORMAL":11
						},
						{
							"POSITION":12,
							"NORMAL":13
						},
						{
							"POSITION":14,
							"NORMAL":15
						},
						{
							"POSITION":16,
							"NORMAL":17
						}
					]
				}
			],
			"weights":[
				0,
				0,
				0,
				0,
				0
			]
		}
	],
	"textures":[
		{
			"sampler":0,
			"source":0
		}
	],
	"images":[
		{
			"bufferView":8,
			"mimeType":"image/png",
			"name":"demonios"
		}
	],
	"accessors":[
		{
			"bufferView":0,
			"componentType":5126,
			"count":192,
			"max":[
				0.25,
				0.25,
				0.5
			],
			"min":[
				-0.25,
				-0.25,
				-0.5
			],
			"type":"VEC3"
		},
		{
			"bufferView":1,
			"componentType":5126,
			"count":192,
			"type":"VEC3"
		},
		{
			"bufferView":2,
			"componentType":5126,
			"count":192,
			"type":"VEC2"
		},
		{
			"bufferView":3,
			"componentType":5123,
			"count":372,
			"type":"SCALAR"
		},
		{
			"bufferView":4,
			"componentType":5126,
			"count":10378,
			"max":[
				0.3314261734485626,
				0.5801619291305542,
				0.6937209367752075
			],
			"min":[
				-0.43190082907676697,
				-0.5369302034378052,
				-0.8294529914855957
			],
			"type":"VEC3"
		},
		{
			"bufferView":5,
			"componentType":5126,
			"count":10378,
			"type":"VEC3"
		},
		{
			"bufferView":6,
			"componentType":5126,
			"count":10378,
			"type":"VEC2"
		},
		{
			"bufferView":7,
			"componentType":5123,
			"count":11814,
			"type":"SCALAR"
		},
		{
			"bufferView":9,
			"componentType":5126,
			"count":10378,
			"max":[
				0.010582059621810913,
				0.0059247612953186035,
				0.0217745304107666
			],
			"min":[
				-0.013844668865203857,
				-0.010894536972045898,
				-0.004503190517425537
			],
			"type":"VEC3"
		},
		{
			"bufferView":10,
			"componentType":5126,
			"count":10378,
			"type":"VEC3"
		},
		{
			"bufferView":11,
			"componentType":5126,
			"count":10378,
			"max":[
				0.04589846730232239,
				0.012272804975509644,
				0.06124472618103027
			],
			"min":[
				-0.05678388476371765,
				-0.021234869956970215,
				-0.0065919458866119385
			],
			"type":"VEC3"
		},
		{
			"bufferView":12,
			"componentType":5126,
			"count":10378,
			"type":"VEC3"
		},
		{
			"bufferView":13,
			"componentType":5126,
			"count":10378,
			"max":[
				0.06870430707931519,
				0.01596987247467041,
				0.07861495018005371
			],
			"min":[
				-0.05337831377983093,
				-0.01972782611846924,
				-0.004765689373016357
			],
			"type":"VEC3"
		},
		{
			"bufferView":14,
			"componentType":5126,
			"count":10378,
			"type":"VEC3"
		},
		{
			"bufferView":15,
			"componentType":5126,
			"count":10378,
			"max":[
				0.0593646764755249,
				0.008377671241760254,
				0.05355346202850342
			],
			"min":[
				-0.010639309883117676,
				-0.017574399709701538,
				-0.005811095237731934
			],
			"type":"VEC3"
		},
		{
			"bufferView":16,
			"componentType":5126,
			"count":10378,
			"type":"VEC3"
		},
		{
			"bufferView":17,
			"componentType":5126,
			"count":10378,
			"max":[
				0.029914915561676025,
				0.004756450653076172,
				0.02327144145965576
			],
			"min":[
				-0.0004068315029144287,
				-0.009153127670288086,
				-0.01964360475540161
			],
			"type":"VEC3"
		},
		{
			"bufferView":18,
			"componentType":5126,
			"count":10378,
			"type":"VEC3"
		}
	],
	"bufferViews":[
		{
			"buffer":0,
			"byteLength":2304,
			"byteOffset":0,
			"target":34962
		},
		{
			"buffer":0,
			"byteLength":2304,
			"byteOffset":2304,
			"target":34962
		},
		{
			"buffer":0,
			"byteLength":1536,
			"byteOffset":4608,
			"target":34962
		},
		{
			"buffer":0,
			"byteLength":744,
			"byteOffset":6144,
			"target":34963
		},
		{
			"buffer":0,
			"byteLength":124536,
			"byteOffset":6888,
			"target":34962
		},
		{
			"buffer":0,
			"byteLength":124536,
			"byteOffset":131424,
			"target":34962
		},
		{
			"buffer":0,
			"byteLength":83024,
			"byteOffset":255960,
			"target":34962
		},
		{
			"buffer":0,
			"byteLength":23628,
			"byteOffset":338984,
			"target":34963
		},
		{
			"buffer":0,
			"byteLength":37837,
			"byteOffset":362612
		},
		{
			"buffer":0,
			"byteLength":124536,
			"byteOffset":400452,
			"target":34962
		},
		{
			"buffer":0,
			"byteLength":124536,
			"byteOffset":524988,
			"target":34962
		},
		{
			"buffer":0,
			"byteLength":124536,
			"byteOffset":649524,
			"target":34962
		},
		{
			"buffer":0,
			"byteLength":124536,
			"byteOffset":774060,
			"target":34962
		},
		{
			"buffer":0,
			"byteLength":124536,
			"byteOffset":898596,
			"target":34962
		},
		{
			"buffer":0,
			"byteLength":124536,
			"byteOffset":1023132,
			"target":34962
		},
		{
			"buffer":0,
			"byteLength":124536,
			"byteOffset":1147668,
			"target":34962
		},
		{
			"buffer":0,
			"byteLength":124536,
			"byteOffset":1272204,
			"target":34962
		},
		{
			"buffer":0,
			"byteLength":124536,
			"byteOffset":1396740,
			"target":34962
		},
		{
			"buffer":0,
			"byteLength":124536,
			"byteOffset":1521276,
			"target":34962
		}
	],
	"samplers":[
		{
			"magFilter":9729,
			"minFilter":9987
		}
	],
	"buffers":[
		{
			"byteLength":1645812,
			"uri":"data:application/octet-stream;base64,"
		}
	]
}
